<svg xmlns="http://www.w3.org/2000/svg" width="256" height="256" viewBox="0 0 100 100"><rect width="100" height="100" rx="50" fill="#4a90e2"></rect><path d="M47.04 52.50L47.04 52.50Q47.84 54.02 48.58 55.66Q49.32 57.30 50 59.02L50 59.02Q50.68 57.26 51.44 55.60Q52.20 53.94 53 52.38L53 52.38L67.96 22.94Q68.36 22.18 68.78 21.76Q69.20 21.34 69.72 21.14Q70.24 20.94 70.90 20.90Q71.56 20.86 72.44 20.86L72.44 20.86L82.76 20.86L82.76 79.14L70.84 79.14L70.84 45.62Q70.84 43.18 71.08 40.34L71.08 40.34L55.64 70.30Q54.92 71.70 53.70 72.42Q52.48 73.14 50.92 73.14L50.92 73.14L49.08 73.14Q47.52 73.14 46.30 72.42Q45.08 71.70 44.36 70.30L44.36 70.30L28.84 40.30Q29.00 41.70 29.08 43.08Q29.16 44.46 29.16 45.62L29.16 45.62L29.16 79.14L17.24 79.14L17.24 20.86L27.56 20.86Q28.44 20.86 29.10 20.90Q29.76 20.94 30.28 21.14Q30.80 21.34 31.22 21.76Q31.64 22.18 32.04 22.94L32.04 22.94L47.04 52.50Z" fill="#fff"></path></svg>